<?xml version="1.0" encoding="utf-8"?>
<!-- Generator: Adobe Illustrator 26.4.1, SVG Export Plug-In . SVG Version: 6.00 Build 0)  -->
<svg version="1.1" id="Layer_1" xmlns="http://www.w3.org/2000/svg" xmlns:xlink="http://www.w3.org/1999/xlink" x="0px" y="0px"
	 viewBox="0 0 300 105" style="enable-background:new 0 0 300 105;" xml:space="preserve">
<style type="text/css">
	.st0{fill:#FFFFFF;}
</style>
<path class="st0" d="M218.6,33.9c3.8-0.8,7-1.5,10.2-2.2v10.9c-0.6-0.3-0.9-0.4-1.1-0.6c-1.2-1.1-1.9-0.7-2.6,0.5
	c-3.1,4.9-6.3,9.8-9.4,14.8c-1,1.6-2.2,2.2-4,2.3c-3.7,0.3-7.4,0.8-11.1,1.2c-1.5,0.2-2.4,0.9-3.1,2.1c-2.9,4.5-5.9,9.1-9,13.5
	c-0.4,0.6-1.4,1.1-2.2,1.1c-11.1,0.1-22.1,0-33.2,0.1c-1.4,0-1.7-0.6-1.7-1.8c0-13.7,0-27.4,0-41.1c0-1.4,0.5-2,1.9-1.9
	c1.8,0.1,3.7,0.1,5.5,0c1.8-0.2,2.4,0.5,2.4,2.3c-0.1,10.4,0,20.9,0,31.4c0,3,0,3,2.9,3c6.2,0,12.5,0,18.7,0c1.6,0,2.6-0.5,3.4-1.8
	c2.7-3.9,5.4-7.7,8.2-11.5c0.6-0.8,1.9-1.5,2.9-1.7c3.5-0.6,7-0.8,10.5-1.3c0.8-0.1,1.7-0.6,2.1-1.2c3-4.3,5.9-8.7,8.9-13.1
	C219.9,37.4,221.6,36,218.6,33.9L218.6,33.9z"/>
<path class="st0" d="M298,32.7v8.5h-24.3v10c1.9,0,3.6,0,5.4,0c4.8,0,9.7,0,14.5,0c1.2,0,1.7,0.3,1.7,1.6c-0.1,2.3,0,4.5,0,7h-21.5
	v9.4c0.7,0,1.4,0.1,2,0.1c6.7,0,13.3,0.1,20,0c2,0,2.5,0.6,2.4,2.5c-0.2,1.6,0,3.3,0,4.9c0,0.9-0.2,1.4-1.2,1.4
	c-10.9,0-21.8-0.1-32.7-0.1c-0.1,0-0.1,0-0.4-0.2c0-0.6-0.1-1.2-0.1-1.9c0-13.7,0-27.3,0-41c0-1.7,0.5-2.3,2.2-2.2c10,0.1,20,0,30,0
	C296.6,32.6,297.3,32.7,298,32.7L298,32.7z"/>
<path class="st0" d="M108.3,32.7h34v8.5h-24.1v9.7c0.8,0,1.5,0.1,2.2,0.1c5.7,0,11.4,0,17.2,0c1.6,0,2.3,0.4,2.1,2.1
	c-0.2,2.1,0,4.2,0,6.5h-21.4V69h24.1v8.6h-34.1L108.3,32.7L108.3,32.7z"/>
<path class="st0" d="M11.6,77.8H1.8V32.9c0.2-0.1,0.3-0.2,0.4-0.2c7.4,0.1,14.7-0.3,22.1,0.4c6.2,0.6,10.9,4.1,13.1,10.2
	c2,5.7,1.3,11.1-2.5,15.8c-3.6,4.3-8.5,5.6-13.9,5.7c-2.4,0.1-4.8,0-7.2,0c-0.7,0-1.4,0-2.2,0C11.6,64.8,11.6,77.8,11.6,77.8z
	 M11.7,55.8c3.9,0,7.8,0.2,11.7-0.1c1.3-0.1,2.8-1.3,3.6-2.4c3.2-4.5,0.8-11-4.7-11.8c-3.4-0.5-7-0.1-10.5-0.1L11.7,55.8L11.7,55.8z
	"/>
<path class="st0" d="M75.9,64.9c0,3.8-0.1,7.4,0,11.1c0,1.5-0.4,2-1.9,1.9c-2.6-0.1-5.3,0-8,0V32.8c0.3-0.1,0.5-0.2,0.8-0.2
	c7,0.1,14-0.2,20.9,0.3c11.8,0.9,18.5,13.2,13,23.7c-2.8,5.4-7.9,7.5-13.7,8c-3.2,0.3-6.4,0.1-9.6,0.2C77,64.8,76.5,64.8,75.9,64.9
	L75.9,64.9z M76,56.1c3.2,0,6.2,0,9.3,0c4,0,6.7-2.2,7.1-5.8c0.5-4.3-1.4-8-5.4-8.6c-3.6-0.6-7.3-0.4-11-0.6V56.1L76,56.1z"/>
<path class="st0" d="M25.7,7.4c8.3-1.2,16.6-2.6,25-3.6c17.2-2,34.5-2.9,51.8-2c27.5,1.4,54.1,6.7,79.6,17.5
	c12,5.1,23.4,11.1,34.3,18.2c0.4,0.3,0.8,0.6,1.3,1c-1.5,2.2-2.9,4.3-4.5,6.6c-1.7-1.1-3.3-2.1-4.9-3.2
	c-16.6-11-34.4-19.7-53.3-26.1c-17.9-6-36.3-9.7-55.2-11.4c-22.1-2-44.2-0.9-66.1,2.2c-2.7,0.4-5.3,0.8-8,1.2
	C25.8,7.7,25.7,7.5,25.7,7.4L25.7,7.4z"/>
<path class="st0" d="M221.4,50.5c1.2-1.9,2.6-4.1,4.3-6.7c6,4.9,11.9,9.6,18,14.5V32.8h9.9v45.7C242.9,69.2,232.2,59.9,221.4,50.5
	L221.4,50.5z"/>
<path class="st0" d="M45.2,77.7v-45h9.7v45H45.2z"/>
<path class="st0" d="M221.3,51.6c0.4,0.9,1.1,1.7,1.1,2.6c0.1,7.3,0,14.6,0.1,21.9c0,1.4-0.4,1.9-1.8,1.8c-2.6-0.1-5.1,0-7.8,0
	c-0.1-0.6-0.2-1.1-0.2-1.6c0-4.6,0-9.3,0-14c0-1.1,0.2-1.7,1.5-1.9c0.6-0.1,1.3-0.7,1.7-1.3c1.7-2.5,3.2-4.9,4.8-7.4
	C220.8,51.7,221.1,51.7,221.3,51.6z"/>
<path class="st0" d="M201.8,62.2c0,4.6,0,9.2,0,13.8c0,0.6-0.1,1.1-0.2,1.9c-3,0-6,0-8.9,0c-0.3,0-0.9-0.5-0.9-0.7
	c0.2-1.5,0-3.2,0.7-4.5c1.7-3.1,3.9-6,5.8-9C199.1,62.4,200.1,61.9,201.8,62.2z"/>
<path class="st0" d="M191.8,57c0-3.3,0-6.6,0.1-10c0-0.5,0.8-1.2,1.3-1.2c2.5-0.1,4.9-0.1,7.3,0c0.5,0,0.9,0.8,1.3,1.3
	c0,0,0,0.1,0,0.2c0,1.7,0.6,4-0.3,5.1c-0.8,1-3.2,0.9-4.9,1.1c-1.4,0.1-2.3,0.7-3,1.9c-0.4,0.7-0.9,1.3-1.3,1.9
	C192.2,57.1,192,57,191.8,57L191.8,57z"/>
<path class="st0" d="M191.8,33.1c3.5,2,6.6,3.6,9.4,5.6c0.7,0.5,0.5,2.2,0.8,3.7c-3.4,0-6.3,0-9.2,0c-0.3,0-0.9-0.6-0.9-1
	C191.8,38.9,191.8,36.3,191.8,33.1z"/>
<path class="st0" d="M5.4,102.1c-0.9-0.6-1.6-1.5-2.1-2.6s-0.8-2.5-0.8-4s0.3-2.9,0.8-4s1.2-2,2.1-2.6s2-0.9,3.3-0.9
	c1.5,0,2.7,0.4,3.7,1.3s1.7,2,2.1,3.5h-1.1c-0.3-1.2-0.9-2.1-1.7-2.8c-0.8-0.7-1.8-1-2.9-1c-1,0-1.9,0.3-2.7,0.8s-1.3,1.3-1.7,2.3
	c-0.4,1-0.6,2.1-0.6,3.5c0,1.3,0.2,2.5,0.6,3.5s1,1.7,1.7,2.2c0.8,0.5,1.6,0.8,2.7,0.8s2.1-0.3,2.8-0.9c0.8-0.6,1.4-1.5,1.7-2.6h1.2
	c-0.4,1.4-1.1,2.5-2.1,3.3s-2.2,1.2-3.6,1.2C7.5,103,6.4,102.7,5.4,102.1z"/>
<path class="st0" d="M29.8,102.1c-0.9-0.6-1.7-1.5-2.2-2.6s-0.8-2.5-0.8-4s0.3-2.9,0.8-4s1.2-2,2.2-2.6c0.9-0.6,2-0.9,3.3-0.9
	c1.2,0,2.3,0.3,3.2,0.9s1.6,1.5,2.1,2.6s0.8,2.5,0.8,4s-0.3,2.8-0.8,4c-0.5,1.1-1.2,2-2.1,2.6c-0.9,0.6-2,0.9-3.2,0.9
	C31.8,103,30.7,102.7,29.8,102.1z M35.7,101.3c0.8-0.5,1.3-1.3,1.7-2.2c0.4-1,0.6-2.1,0.6-3.5c0-1.3-0.2-2.5-0.6-3.5
	c-0.4-1-1-1.7-1.7-2.3C35,89.3,34.1,89,33.1,89s-1.9,0.3-2.7,0.8c-0.8,0.5-1.3,1.3-1.8,2.3c-0.4,1-0.6,2.1-0.6,3.5
	c0,1.3,0.2,2.5,0.6,3.5s1,1.7,1.8,2.2s1.7,0.8,2.7,0.8C34.1,102.1,35,101.8,35.7,101.3z"/>
<path class="st0" d="M63.5,88.3v14.4h-1.6L54.3,90h-0.2v12.7H53V88.3h1.5l3.9,6.5l3.9,6.5h0.2v-13H63.5z"/>
<path class="st0" d="M78.9,95.5c-0.7-2-1.5-4.4-2.5-7.2h1.2l1.6,4.6c0.9,2.5,1.8,5.4,2.9,8.6h0.1c0.2-0.7,1.3-3.9,3.2-9.4l1.3-3.8
	h1.1l-3.1,8.9l-1.9,5.5h-1.5L78.9,95.5z"/>
<path class="st0" d="M101.7,101.8h7.8v1h-8.9V88.3h8.8v1h-7.6v5.4h7.2v1h-7.2L101.7,101.8L101.7,101.8z"/>
<path class="st0" d="M132.7,101.9c0.1,0.4,0.2,0.6,0.3,0.9h-1.2c-0.1-0.4-0.2-0.7-0.3-1.1s-0.1-0.9-0.2-1.7
	c-0.1-1.1-0.3-1.9-0.6-2.4s-0.8-0.8-1.3-1c-0.6-0.1-1.4-0.2-2.5-0.2H124v6.4h-1.1V88.3h4.9c1.5,0,2.7,0.3,3.5,1s1.2,1.6,1.2,2.9
	c0,1-0.2,1.8-0.7,2.4s-1.2,1.1-2.2,1.2v0.1c0.7,0.1,1.2,0.2,1.6,0.5c0.4,0.3,0.7,0.7,0.9,1.2c0.2,0.6,0.4,1.3,0.5,2.3
	C132.5,100.9,132.6,101.5,132.7,101.9z M127.4,95.4c1.3,0,2.2-0.3,2.9-0.8s1-1.3,1-2.3s-0.3-1.7-0.9-2.2c-0.6-0.5-1.5-0.7-2.7-0.7
	H124v6.1L127.4,95.4L127.4,95.4z"/>
<path class="st0" d="M146.7,102c-0.8-0.7-1.3-1.7-1.5-3.1h1.1c0.2,2.1,1.5,3.1,3.8,3.1c1.1,0,2-0.3,2.7-0.8c0.7-0.6,1-1.3,1-2.2
	c0-0.7-0.2-1.2-0.5-1.6s-0.8-0.7-1.3-1c-0.5-0.2-1.3-0.5-2.4-0.8c-1.4-0.4-2.5-0.9-3.2-1.6c-0.7-0.6-1-1.4-1-2.4
	c0-1.1,0.4-2,1.2-2.7s1.9-1,3.2-1c1.4,0,2.5,0.3,3.3,0.9s1.3,1.5,1.5,2.7h-1c-0.4-1.7-1.6-2.6-3.7-2.6c-1,0-1.8,0.2-2.4,0.7
	c-0.6,0.5-0.9,1.1-0.9,1.9s0.3,1.4,0.8,1.8s1.5,0.9,2.7,1.3s2.2,0.7,2.8,1s1.1,0.7,1.5,1.2s0.6,1.2,0.6,2s-0.2,1.5-0.6,2.1
	c-0.4,0.6-1,1.1-1.7,1.4s-1.5,0.5-2.5,0.5C148.7,103,147.5,102.7,146.7,102z"/>
<path class="st0" d="M168.3,88.3h1.1v14.4h-1.1V88.3z"/>
<path class="st0" d="M186.2,102.1c-0.9-0.6-1.7-1.5-2.2-2.6s-0.8-2.5-0.8-4s0.3-2.9,0.8-4s1.2-2,2.2-2.6c0.9-0.6,2-0.9,3.3-0.9
	s2.3,0.3,3.2,0.9s1.6,1.5,2.1,2.6s0.8,2.5,0.8,4s-0.3,2.8-0.8,4c-0.5,1.1-1.2,2-2.1,2.6c-0.9,0.6-2,0.9-3.2,0.9
	S187.1,102.7,186.2,102.1z M192.1,101.3c0.8-0.5,1.3-1.3,1.7-2.2s0.6-2.1,0.6-3.5c0-1.3-0.2-2.5-0.6-3.5c-0.4-1-1-1.7-1.7-2.3
	s-1.6-0.8-2.7-0.8s-1.9,0.3-2.7,0.8s-1.3,1.3-1.8,2.3c-0.4,1-0.6,2.1-0.6,3.5c0,1.3,0.2,2.5,0.6,3.5c0.4,1,1,1.7,1.8,2.2
	s1.7,0.8,2.7,0.8S191.4,101.8,192.1,101.3z"/>
<path class="st0" d="M220.3,88.3v14.4h-1.6L211.1,90h-0.2v12.7h-1.1V88.3h1.5l3.9,6.5l3.9,6.5h0.2v-13H220.3z"/>
<path class="st0" d="M260.8,102.8h-1.3l-5.7-7.9h-0.2l-2.1,2v5.9h-1.1V88.3h1.1v7.1c1.6-1.6,2.9-2.7,3.7-3.5l3.7-3.5h1.5l-5.9,5.6
	L260.8,102.8z"/>
<path class="st0" d="M273.3,88.3h1.1v14.4h-1.1V88.3z"/>
<path class="st0" d="M297.6,88.3v1H293v13.4h-1.1V89.3h-4.5v-1H297.6z"/>
</svg>
