<?xml version="1.0" encoding="utf-8"?>
<!-- Generator: Adobe Illustrator 26.4.1, SVG Export Plug-In . SVG Version: 6.00 Build 0)  -->
<svg version="1.1" id="Layer_1" xmlns="http://www.w3.org/2000/svg" xmlns:xlink="http://www.w3.org/1999/xlink" x="0px" y="0px"
	 viewBox="0 0 1437 1024" style="enable-background:new 0 0 1437 1024;" xml:space="preserve">
<style type="text/css">
	.st0{fill:url(#SVGID_1_);fill-opacity:0.1;}
	.st1{fill:none;stroke:url(#SVGID_00000013181685163457503710000008405437159720426886_);stroke-width:0.5;stroke-miterlimit:10;}
	.st2{fill:url(#SVGID_00000180367442664762878140000006383770350707224478_);fill-opacity:0.1;}
	.st3{fill:url(#SVGID_00000037651631604875665690000005266629135358722186_);fill-opacity:0.1;}
	.st4{fill:url(#SVGID_00000093873535947347936480000011221750011800919732_);fill-opacity:0.1;}
	.st5{fill:none;stroke:#FFFFFF;stroke-width:0.5;stroke-miterlimit:10;stroke-opacity:0.1;}
	.st6{fill:url(#SVGID_00000181058956764118527600000011716721503899700616_);fill-opacity:0.1;}
	.st7{opacity:0.7;}
	.st8{fill:none;stroke:#FFFFFF;stroke-width:1.5;stroke-linecap:round;stroke-miterlimit:10;stroke-opacity:0.1;}
	.st9{fill:none;stroke:#FFFFFF;stroke-width:1.4;stroke-linecap:round;stroke-miterlimit:10;stroke-opacity:0.1;}
	.st10{fill:none;stroke:#FFFFFF;stroke-width:1.3;stroke-linecap:round;stroke-miterlimit:10;stroke-opacity:0.1;}
	.st11{fill:none;stroke:#FFFFFF;stroke-width:1.2;stroke-linecap:round;stroke-miterlimit:10;stroke-opacity:0.1;}
	.st12{fill:none;stroke:#FFFFFF;stroke-width:1.1;stroke-linecap:round;stroke-miterlimit:10;stroke-opacity:0.1;}
	.st13{fill:none;stroke:#FFFFFF;stroke-linecap:round;stroke-miterlimit:10;stroke-opacity:0.1;}
	.st14{fill:none;stroke:#FFFFFF;stroke-width:0.9;stroke-linecap:round;stroke-miterlimit:10;stroke-opacity:0.1;}
	.st15{fill:none;stroke:#FFFFFF;stroke-width:0.8;stroke-linecap:round;stroke-miterlimit:10;stroke-opacity:0.1;}
	.st16{fill:url(#SVGID_00000138562819763440198810000003832669289110030270_);}
	.st17{fill:url(#SVGID_00000121264894169932404350000006285165630818001320_);}
	.st18{fill:url(#SVGID_00000047740929118523613050000012540532467743055756_);}
</style>
<g>
	
		<linearGradient id="SVGID_1_" gradientUnits="userSpaceOnUse" x1="449.4507" y1="1446.8539" x2="118.5748" y2="1025.538" gradientTransform="matrix(1 0 0 -1 0 1792)">
		<stop  offset="0" style="stop-color:#E8EBF1;stop-opacity:0.9"/>
		<stop  offset="0.2" style="stop-color:#E4E8EF;stop-opacity:0.7"/>
		<stop  offset="0.3" style="stop-color:#E1E6EE;stop-opacity:0.5"/>
		<stop  offset="0.5" style="stop-color:#DFE4ED;stop-opacity:0.3"/>
		<stop  offset="0.6" style="stop-color:#DDE2EC;stop-opacity:0.2"/>
		<stop  offset="0.8" style="stop-color:#DCE1EB;stop-opacity:0"/>
		<stop  offset="0.9" style="stop-color:#DBE1EB;stop-opacity:0"/>
		<stop  offset="1" style="stop-color:#DBE1EB;stop-opacity:0"/>
	</linearGradient>
	<path class="st0" d="M0,174.1V1024h500.1C515.8,586.3,211.9,269.1,0,174.1z"/>
	
		<linearGradient id="SVGID_00000091016361033769093380000014813096463875531166_" gradientUnits="userSpaceOnUse" x1="-83.2122" y1="1529.0739" x2="607.678" y2="882.7134" gradientTransform="matrix(1 0 0 -1 0 1792)">
		<stop  offset="0" style="stop-color:#FDFEFE"/>
		<stop  offset="0.2" style="stop-color:#FBFBFC;stop-opacity:0.9"/>
		<stop  offset="0.4" style="stop-color:#F6F7FA;stop-opacity:0.8"/>
		<stop  offset="0.6" style="stop-color:#EFF2F6;stop-opacity:0.6"/>
		<stop  offset="0.8" style="stop-color:#E7EBF1;stop-opacity:0.3"/>
		<stop  offset="1" style="stop-color:#DBE1EB;stop-opacity:0"/>
	</linearGradient>
	
		<path style="fill:none;stroke:url(#SVGID_00000091016361033769093380000014813096463875531166_);stroke-width:0.5;stroke-miterlimit:10;" d="
		M500.1,1024C515.8,586.3,211.9,269.1,0,174.1"/>
	
		<linearGradient id="SVGID_00000174569908646255960680000013236940074322681524_" gradientUnits="userSpaceOnUse" x1="831.7296" y1="1234.0657" x2="844.8626" y2="808.1317" gradientTransform="matrix(1 0 0 -1 0 1792)">
		<stop  offset="0" style="stop-color:#E8EBF1;stop-opacity:0.9"/>
		<stop  offset="0.2" style="stop-color:#E4E8EF;stop-opacity:0.7"/>
		<stop  offset="0.3" style="stop-color:#E1E6EE;stop-opacity:0.5"/>
		<stop  offset="0.5" style="stop-color:#DFE4ED;stop-opacity:0.3"/>
		<stop  offset="0.6" style="stop-color:#DDE2EC;stop-opacity:0.2"/>
		<stop  offset="0.8" style="stop-color:#DCE1EB;stop-opacity:0"/>
		<stop  offset="0.9" style="stop-color:#DBE1EB;stop-opacity:0"/>
		<stop  offset="1" style="stop-color:#DBE1EB;stop-opacity:0"/>
	</linearGradient>
	<path style="fill:url(#SVGID_00000174569908646255960680000013236940074322681524_);fill-opacity:0.1;" d="M1544.5,1024
		C1433.9,893.7,1158.6,611.1,825,576.7C308.3,523.5,149,850.5,147.7,1024H1544.5z"/>
	
		<linearGradient id="SVGID_00000060713041293539641170000008921078495092066475_" gradientUnits="userSpaceOnUse" x1="745.8987" y1="1427.6599" x2="992.8567" y2="1762.4733" gradientTransform="matrix(1 0 0 -1 0 1792)">
		<stop  offset="0" style="stop-color:#E8EBF1;stop-opacity:0.9"/>
		<stop  offset="0.2" style="stop-color:#E4E8EF;stop-opacity:0.7"/>
		<stop  offset="0.3" style="stop-color:#E1E6EE;stop-opacity:0.5"/>
		<stop  offset="0.5" style="stop-color:#DFE4ED;stop-opacity:0.3"/>
		<stop  offset="0.6" style="stop-color:#DDE2EC;stop-opacity:0.2"/>
		<stop  offset="0.8" style="stop-color:#DCE1EB;stop-opacity:0"/>
		<stop  offset="0.9" style="stop-color:#DBE1EB;stop-opacity:0"/>
		<stop  offset="1" style="stop-color:#DBE1EB;stop-opacity:0"/>
	</linearGradient>
	<path style="fill:url(#SVGID_00000060713041293539641170000008921078495092066475_);fill-opacity:0.1;" d="M379.4,0
		C613.1,294.7,1069.1,636.7,1437,288.6V0H379.4z"/>
	
		<linearGradient id="SVGID_00000097500983601098044970000001249399978374023335_" gradientUnits="userSpaceOnUse" x1="954.2188" y1="1644.0182" x2="1459.0999" y2="1779.748" gradientTransform="matrix(1 0 0 -1 0 1792)">
		<stop  offset="0" style="stop-color:#E8EBF1;stop-opacity:0.9"/>
		<stop  offset="0.2" style="stop-color:#E4E8EF;stop-opacity:0.7"/>
		<stop  offset="0.3" style="stop-color:#E1E6EE;stop-opacity:0.5"/>
		<stop  offset="0.5" style="stop-color:#DFE4ED;stop-opacity:0.3"/>
		<stop  offset="0.6" style="stop-color:#DDE2EC;stop-opacity:0.2"/>
		<stop  offset="0.8" style="stop-color:#DCE1EB;stop-opacity:0"/>
		<stop  offset="0.9" style="stop-color:#DBE1EB;stop-opacity:0"/>
		<stop  offset="1" style="stop-color:#DBE1EB;stop-opacity:0"/>
	</linearGradient>
	<path style="fill:url(#SVGID_00000097500983601098044970000001249399978374023335_);fill-opacity:0.1;" d="M1437,223.2V0H742.1
		C881.4,170,1134.7,292.5,1437,223.2z"/>
	<path class="st5" d="M742.1,0c139.3,170,392.6,292.5,694.9,223.2"/>
	<path class="st5" d="M379.4,0C613.1,294.7,1069.1,636.7,1437,288.6"/>
	
		<linearGradient id="SVGID_00000130618990240044912440000015814549427349935758_" gradientUnits="userSpaceOnUse" x1="611.3563" y1="991.1228" x2="1224.5103" y2="1003.6708" gradientTransform="matrix(1 0 0 -1 0 1792)">
		<stop  offset="0" style="stop-color:#E8EBF1;stop-opacity:0.9"/>
		<stop  offset="0.2" style="stop-color:#E4E8EF;stop-opacity:0.7"/>
		<stop  offset="0.3" style="stop-color:#E1E6EE;stop-opacity:0.5"/>
		<stop  offset="0.5" style="stop-color:#DFE4ED;stop-opacity:0.3"/>
		<stop  offset="0.6" style="stop-color:#DDE2EC;stop-opacity:0.2"/>
		<stop  offset="0.8" style="stop-color:#DCE1EB;stop-opacity:0"/>
		<stop  offset="0.9" style="stop-color:#DBE1EB;stop-opacity:0"/>
		<stop  offset="1" style="stop-color:#DBE1EB;stop-opacity:0"/>
	</linearGradient>
	<path style="fill:url(#SVGID_00000130618990240044912440000015814549427349935758_);fill-opacity:0.1;" d="M544.1,1024H1437V568.5
		C977,464.1,610.6,777,544.1,1024z"/>
	<path class="st5" d="M1437,568.5C977,464.1,610.6,777,544.1,1024"/>
	<g class="st7">
		<path class="st8" d="M95.8,1089.3C57.5,843.6,207.5,580,549.9,534.3c275.9-36.9,913.9,112.6,992.5-505.9"/>
		<path class="st8" d="M67.6,1077.4C42.3,824.7,206,558.3,562,525.9c282.4-25.6,903.4,134.3,996.9-466.9"/>
		<path class="st9" d="M39.7,1065.4c-12.5-259.7,165-529.4,534.8-548c288.9-14.5,892.9,155.9,1001.1-428.2"/>
		<path class="st9" d="M11.5,1053.5c0.6-266.6,191.4-539.6,575-544.6c295.3-3.7,882.3,177.6,1005.5-389.3"/>
		<path class="st10" d="M-16.5,1041.6C-2.9,768,201.4,491.3,598.8,500.5c301.6,7,871.8,199.1,1009.7-350.6"/>
		<path class="st10" d="M-44.6,1029.7C-18.2,749,199.5,468.8,611,491.9c307.9,17.4,861.2,220.8,1014.1-311.7"/>
		<path class="st11" d="M-72.6,1017.7c39.5-287.7,270.5-572,695.9-534.3c314.2,27.9,850.7,242.3,1018.4-272.8"/>
		<path class="st11" d="M-100.8,1005.8c52.5-294.7,297-583.1,736.3-530.8c320.5,38.1,840,264,1022.8-234.1"/>
		<path class="st12" d="M-128.8,993.9c65.3-301.7,323.2-594.3,776.6-527.4C974.9,514.9,1477.2,752,1675,271.4"/>
		<path class="st12" d="M-156.7,982C-78.3,673.4,193,376.4,660.1,458.1c333.4,58.4,818.9,307.2,1031.4-156.5"/>
		<path class="st12" d="M-184.9,970.1C-93.7,654.5,191.2,353,672.3,449.7c339.7,68.4,808.4,328.7,1035.8-117.6"/>
		<path class="st13" d="M-212.9,958.1c104.2-322.6,402.7-628.7,897.5-516.9c346.2,78.2,797.8,350.4,1040-78.6"/>
		<path class="st13" d="M-241,946.2c117.3-329.5,429.2-640.4,937.7-513.4c352.7,88.1,787.3,371.9,1044.4-39.9"/>
		<path class="st14" d="M-269,934.3C-138.9,597.6,186.8,282,709.1,424.1c359.1,97.9,776.7,393.6,1048.6-1"/>
		<path class="st14" d="M-297.2,922.4C-154,578.8,185.3,258,721.2,415.7c365.6,107.5,766.2,415.1,1053,37.7"/>
		<path class="st15" d="M-325.1,910.3c156-350.4,509.1-676.2,1058.6-503.2c372.3,117.1,755.7,436.8,1057.4,76.6"/>
		<path class="st15" d="M-353.3,898.5c169.2-357.6,536.1-689.2,1099-499.7c379,126.4,745.1,458.3,1061.7,115.5"/>
		<path class="st15" d="M-381.3,886.6C-199.3,522,181.3,186.2,758,390.3c385.3,136.4,734.6,480.1,1066.1,154.2"/>
	</g>
	<g class="st7">
		<path class="st8" d="M482.8,1234.7C281.7,1046.3,209.2,249.2,647.6,166.9c377.5-70.9,651.4,117.6,807,256.8
			c133.7,119.6,292.8,349.4,292.8,349.4"/>
		<path class="st8" d="M434.7,1223.9C249.1,1024.4,193.9,259.5,622.9,177.8C991.5,107.6,1263.6,288,1420.5,427
			c139.9,123.1,301.8,354.9,308.9,376.2"/>
		<path class="st9" d="M386.8,1212.8C216.7,1002.3,179,269.5,598.4,188.4c360-69.4,629.8,103.4,788.4,241.5
			c145.6,126.8,310.8,360.7,324.8,402.8"/>
		<path class="st9" d="M338.7,1202C184.1,980.2,163.6,279.6,573.5,199.3c351.2-68.6,618.9,96.3,779.2,233.9
			c151.6,130.3,319.6,366.2,340.7,429.7"/>
		<path class="st10" d="M290.8,1191.1C151.6,958.3,148.7,289.8,548.9,210.3c342.6-68,608.1,89.1,769.8,226.3
			c157.5,133.7,328.6,371.7,356.8,456.3"/>
		<path class="st10" d="M242.8,1180.1C119,936.1,133.4,299.8,524.2,221c333.8-67.2,597.4,81.7,760.7,218.7
			c163.6,137.2,337.6,377.2,372.7,483.1"/>
		<path class="st11" d="M194.7,1169.2C86.4,914.2,118,310.1,499.3,231.8c325.1-66.6,586.7,74.5,751.3,211.1
			c169.6,140.7,346.6,382.8,388.8,509.7"/>
		<path class="st11" d="M146.8,1158.3c-92.7-266-43.7-838.2,328-915.7c316.3-65.7,576.1,67.4,742.1,203.4
			c175.7,144.2,355.6,388.5,404.7,536.6"/>
		<path class="st11" d="M98.7,1147.3c-77.2-277.1-10.9-817.2,351.4-894c307.7-65.1,565.4,60,732.7,195.8
			c181.6,147.7,364.4,394,420.8,563.4"/>
		<path class="st12" d="M50.8,1136.4c-61.7-288.4,22-796.1,374.6-872.2c298.9-64.3,554.7,52.6,723.5,188.2
			c187.8,150.9,373.4,399.6,436.7,590"/>
		<path class="st12" d="M2.7,1125.6c-46.4-299.4,54.8-775,398-850.5c290.3-63.7,544.1,45.3,714.1,180.6
			c193.9,154.2,382.4,405.1,452.8,616.9"/>
		<path class="st13" d="M-45.2,1114.5C-76.1,804,42.5,360.4,376.1,285.7c281.5-62.9,533.4,37.9,704.9,173.1
			c200,157.7,391.4,410.8,468.7,643.5"/>
		<path class="st13" d="M-93.3,1103.7c-15.3-321.5,120.5-733,444.7-807.1c272.8-62.3,522.9,30.5,695.5,165.3
			c206.2,161,400.2,416.4,484.6,670.3"/>
		<path class="st13" d="M-141.2,1092.8c0-332.6,153.5-711.9,467.9-785.4C590.9,246,839,330.5,1013,465.1
			c212.3,164.2,409.3,421.9,500.7,696.9"/>
		<path class="st14" d="M-189.3,1081.8c15.7-343.9,186.2-691,491.3-763.7c255.4-60.6,501.6,15.8,676.9,150.1
			c218.4,167.5,418.3,427.4,516.6,723.8"/>
		<path class="st14" d="M-237.4,1070.9C-206.2,716-18.2,401,277.2,329.1c246.8-60,491.1,8.4,667.7,142.5
			c224.7,170.6,427.3,432.9,532.6,750.4"/>
		<path class="st15" d="M-285.3,1060c46.6-366,252-648.8,537.8-720.1c238-59.2,480.7,0.6,658.3,135
			c231.1,173.5,436.3,438.7,548.6,777.2"/>
		<path class="st15" d="M-333.4,1049c62.3-377,284.9-627.7,561.2-698.4c229.3-58.6,470-6.8,649.1,127.2
			c237.2,176.9,445.1,444.2,564.6,804"/>
		<path class="st15" d="M-381.3,1038.1C-239.5,329.1,444.3,185.7,843,481c243.3,180.2,454.1,449.7,580.5,830.7"/>
	</g>
	
		<radialGradient id="SVGID_00000113344501942161593990000007093647633564075963_" cx="1758.7808" cy="660.0383" r="1" gradientTransform="matrix(136.6935 40.2456 8.518 -28.9313 -244990.2969 -51460.375)" gradientUnits="userSpaceOnUse">
		<stop  offset="0" style="stop-color:#FFFCF4"/>
		<stop  offset="0.1" style="stop-color:#FFF8DB"/>
		<stop  offset="0.4" style="stop-color:#7E7A6C;stop-opacity:0.5"/>
		<stop  offset="0.5" style="stop-color:#23221E;stop-opacity:0.1"/>
		<stop  offset="0.6" style="stop-color:#000000;stop-opacity:0"/>
	</radialGradient>
	<path style="fill:url(#SVGID_00000113344501942161593990000007093647633564075963_);" d="M1192.3,229.2
		c-3.4,12.9-67.2,5.5-142.8-16.8c-75.5-22.3-133.9-51-130.7-63.9c3.4-13.1,67.3-5.5,142.7,16.8
		C1137.2,187.6,1195.6,216.3,1192.3,229.2z"/>
	
		<radialGradient id="SVGID_00000089539389228117284800000009129398101789391251_" cx="1759.7542" cy="612.82" r="1" gradientTransform="matrix(85.1301 121.1939 23.7444 -16.6787 -163272.7344 -202062)" gradientUnits="userSpaceOnUse">
		<stop  offset="0" style="stop-color:#FFFCF4"/>
		<stop  offset="0.1" style="stop-color:#FFF8DB"/>
		<stop  offset="0.4" style="stop-color:#7E7A6C;stop-opacity:0.5"/>
		<stop  offset="0.5" style="stop-color:#23221E;stop-opacity:0.1"/>
		<stop  offset="0.6" style="stop-color:#000000;stop-opacity:0"/>
	</radialGradient>
	<path style="fill:url(#SVGID_00000089539389228117284800000009129398101789391251_);" d="M1303.7,1003.1
		c-10.2,8.2-56.3-39.5-103.3-106.5c-46.9-67-76.8-127.8-66.9-136c10.2-8.2,56.3,39.5,103.3,106.5
		C1283.7,934.1,1313.6,994.9,1303.7,1003.1z"/>
	
		<radialGradient id="SVGID_00000084506296075922138440000016031798986055713690_" cx="1768.3927" cy="669.1387" r="1" gradientTransform="matrix(237.4534 -99.9791 -23.3021 -55.3431 -403929.0312 214220.5156)" gradientUnits="userSpaceOnUse">
		<stop  offset="0" style="stop-color:#FFFCF4"/>
		<stop  offset="0.1" style="stop-color:#FFF8DB"/>
		<stop  offset="0.4" style="stop-color:#7E7A6C;stop-opacity:0.5"/>
		<stop  offset="0.5" style="stop-color:#23221E;stop-opacity:0.1"/>
		<stop  offset="0.6" style="stop-color:#000000;stop-opacity:0"/>
	</radialGradient>
	<path style="fill:url(#SVGID_00000084506296075922138440000016031798986055713690_);" d="M562,204.2
		c10.3,28.3-85.3,94.8-213.8,149.1c-128.6,54.1-241,75.2-251.4,46.9c-10.3-28.3,85.3-94.8,213.8-149.1
		C439.1,197,551.6,175.9,562,204.2z"/>
</g>
</svg>
